<svg width="409" height="9" viewBox="0 0 409 9" fill="none" xmlns="http://www.w3.org/2000/svg">
<path fill-rule="evenodd" clip-rule="evenodd" d="M89.491 2.05443C88.8821 2.2274 88.1349 2.50554 87.8305 2.67269C87.5261 2.83958 87.1215 2.92038 86.931 2.8523C86.7409 2.78395 86.5851 2.8631 86.5851 3.02804C86.5851 3.19299 86.4127 3.32777 86.2024 3.32777C85.7537 3.32777 85.4872 4.1644 85.482 5.58829C85.4748 7.46826 85.4939 7.47905 88.7952 7.47905H91.7764L91.5033 6.19907C91.322 5.34861 91.3245 4.4428 91.5107 3.50101C91.6649 2.72112 91.7332 1.98939 91.6624 1.87509C91.498 1.60885 90.8773 1.66006 89.491 2.05443Z" fill="#F38218"/>
<path fill-rule="evenodd" clip-rule="evenodd" d="M89.2142 2.38155C88.1488 2.75516 87.1524 3.10193 87.0002 3.15258C85.8013 3.54972 85.7548 3.63966 85.7548 5.57139V7.47904H88.666C91.5633 7.47904 91.5763 7.476 91.4178 6.84417C91.162 5.82489 91.149 4.39464 91.3829 2.98182C91.5027 2.25895 91.4994 1.67527 91.376 1.68468C91.2525 1.69437 90.2797 2.00793 89.2142 2.38155Z" fill="#F38218"/>
<path fill-rule="evenodd" clip-rule="evenodd" d="M74.9619 7.47903H81.3272V1.66724H74.9619V7.47903Z" fill="#FBE5B6"/>
<path fill-rule="evenodd" clip-rule="evenodd" d="M75.2387 7.47903L81.3272 7.47903V1.66724L75.2387 1.66724V7.47903Z" fill="#FBE5B6"/>
<path fill-rule="evenodd" clip-rule="evenodd" d="M53.4325 1.59576C54.4534 1.64862 56.197 1.64916 57.307 1.5963C58.4174 1.54372 57.5821 1.50028 55.4511 1.50001C53.3201 1.49945 52.4118 1.54263 53.4325 1.59576ZM41.9459 2.44759C41.7843 2.77969 41.9193 5.10082 42.146 5.8879C42.2667 6.30663 42.4917 6.64897 42.6461 6.64897C42.8074 6.64897 42.78 6.82554 42.5822 7.0641C42.2808 7.42747 42.5204 7.47923 44.5017 7.47923C45.7468 7.47923 47.5991 7.35995 48.6176 7.2141C49.6363 7.06825 55.4362 6.89002 61.5065 6.81834C67.6542 6.74556 72.656 6.57508 72.7977 6.43338C72.9377 6.29335 73.0149 5.31945 72.9693 4.26918L72.8865 2.35931L62.2316 2.27104C55.1223 2.21209 51.2542 2.28237 50.608 2.48218C50.0752 2.64713 48.8913 2.81651 47.9766 2.85885C47.0622 2.90092 46.1705 3.02435 45.9953 3.13256C45.6513 3.34511 44.7566 3.0988 44.5003 2.72076C44.3033 2.43045 42.0707 2.19159 41.9459 2.44759Z" fill="#313131"/>
<path fill-rule="evenodd" clip-rule="evenodd" d="M32.5195 2.27894C32.2513 3.27967 32.3089 3.93446 32.6465 3.72579C32.8569 3.59599 32.8522 3.7222 32.6316 4.13401C32.4561 4.46196 32.3504 5.31767 32.3966 6.03556L32.4805 7.34073L37.1853 7.49986L36.9085 1.80569L34.7988 1.72544C32.8023 1.64961 32.68 1.67922 32.5195 2.27894Z" fill="#177402"/>
<path fill-rule="evenodd" clip-rule="evenodd" d="M33.034 1.82783C32.812 1.92165 32.7323 4.59423 32.876 7.13316C32.8898 7.37781 33.5108 7.4791 34.997 7.4791H37.0986L36.901 4.78077C36.7926 3.29682 36.6492 1.98917 36.5822 1.87487C36.4566 1.66011 33.5233 1.62109 33.034 1.82783Z" fill="#177402"/>
<path fill-rule="evenodd" clip-rule="evenodd" d="M24.5929 4.57314V7.47904H29.2332L29.4236 5.70062C29.6433 3.64795 29.1872 2.60488 27.949 2.32896C27.5491 2.23984 26.7861 2.05525 26.2534 1.91881C24.5522 1.48237 24.5929 1.41734 24.5929 4.57314Z" fill="#F38218"/>
<path fill-rule="evenodd" clip-rule="evenodd" d="M24.8608 1.70682C24.8561 1.76106 24.7996 3.082 24.7357 4.64232L24.6191 7.47903H29.0649L28.8825 6.64878C28.7785 6.17553 28.8144 5.81852 28.9664 5.81852C29.1128 5.81852 29.239 5.33531 29.2473 4.74472C29.2644 3.49989 28.5701 2.58717 27.4218 2.34584C25.9703 2.04058 25.8346 2.00515 25.3539 1.80727C25.0874 1.69768 24.8657 1.65257 24.8608 1.70682Z" fill="#F38218"/>
<path fill-rule="evenodd" clip-rule="evenodd" d="M17.873 2.08067C17.1451 2.28104 16.3863 2.57993 16.187 2.74543C15.9877 2.91092 15.7547 2.97596 15.6689 2.89044C15.5831 2.80465 15.2521 2.95797 14.9333 3.23113C14.4507 3.64432 14.3535 4.04145 14.3535 5.60316V7.47899H19.7502L19.7637 4.5731C19.7726 2.70557 19.6738 1.67605 19.487 1.69183C19.3273 1.70567 18.6011 1.88058 17.873 2.08067Z" fill="#FEFF03"/>
<path fill-rule="evenodd" clip-rule="evenodd" d="M18.3664 2.09506C17.7576 2.28436 16.6749 2.69395 15.9606 3.0053C14.8475 3.49044 14.635 3.71239 14.4767 4.55649C14.3751 5.09837 14.3737 5.97761 14.4736 6.51036L14.6555 7.47899H17.2907C19.6677 7.47899 19.9126 7.43166 19.7895 6.99467C19.3995 5.60925 19.3483 4.7206 19.5863 3.46608C19.7308 2.70502 19.7646 2.00788 19.6613 1.91655C19.5578 1.8255 18.9753 1.90576 18.3664 2.09506Z" fill="#FEFF03"/>
<path fill-rule="evenodd" clip-rule="evenodd" d="M3.74416 1.85183C3.6426 1.95312 3.55957 3.26078 3.55957 4.75773V7.47903H6.88059H10.2016V1.66724H7.06519C5.33992 1.66724 3.84546 1.75027 3.74416 1.85183Z" fill="#FBE5B6"/>
<path fill-rule="evenodd" clip-rule="evenodd" d="M4.02092 1.85183C3.91935 1.95312 3.83632 3.26077 3.83632 4.75772V7.47903L6.88059 7.47903L9.92487 7.47903V1.66724L7.06519 1.66724C5.49213 1.66724 4.12221 1.75026 4.02092 1.85183Z" fill="#FBE5B6"/>
<path fill-rule="evenodd" clip-rule="evenodd" d="M-13.5986 6.92365L-6.19552 6.78279C2.16489 6.62366 1.9028 6.69922 1.89533 4.45116C1.88786 2.28447 2.27116 2.3888 -6.11083 2.27118L-13.5986 2.16602V6.92365Z" fill="#561217"/>
<path fill-rule="evenodd" clip-rule="evenodd" d="M190.313 3.1875C190.416 4.1155 190.506 5.4655 190.513 6.1875L190.526 7.5H195.848L195.689 5.0625C195.603 3.722 195.53 2.37175 195.529 2.0625C195.526 1.514 195.458 1.5 192.825 1.5H190.125L190.313 3.1875Z" fill="#561217"/>
<path fill-rule="evenodd" clip-rule="evenodd" d="M190.276 1.59351C190.276 1.64501 190.443 2.16125 190.648 2.741C190.875 3.38425 190.938 3.95651 190.809 4.21001C190.694 4.43826 190.586 5.27175 190.571 6.0625L190.542 7.5H195.526L195.523 5.4375C195.522 4.303 195.451 2.95325 195.366 2.4375L195.211 1.5H192.743C191.386 1.5 190.276 1.54201 190.276 1.59351Z" fill="#561217"/>
<path fill-rule="evenodd" clip-rule="evenodd" d="M179.776 7.25015H185.526V2.00015H179.776V7.25015Z" fill="#313131"/>
<path fill-rule="evenodd" clip-rule="evenodd" d="M180.026 7.26715L185.401 7.12515V2.12515L180.026 1.98315V7.26715Z" fill="#313131"/>
<path fill-rule="evenodd" clip-rule="evenodd" d="M162.594 2.17317C162.837 2.23667 163.174 2.23242 163.344 2.16392C163.513 2.09542 163.314 2.04367 162.901 2.04867C162.489 2.05367 162.35 2.10967 162.594 2.17317ZM150.265 2.65718C149.795 2.79068 149.788 4.83667 150.254 5.70817C150.419 6.01642 150.484 6.48968 150.398 6.75943C150.27 7.16293 150.367 7.25642 150.947 7.28618C152.186 7.35017 153.365 7.22242 154.776 6.87167C155.768 6.62517 159.044 6.48692 166.526 6.37567C172.233 6.29092 177.154 6.16942 177.464 6.10592C177.976 6.00067 178.026 5.84842 178.026 4.39717C178.026 2.95092 177.975 2.79192 177.464 2.67242C176.401 2.42342 157.991 2.46767 157.688 2.71992C157.257 3.07717 151.925 3.36667 152.138 3.02092C152.231 2.87192 152.159 2.74843 151.979 2.74643C151.799 2.74468 151.426 2.69892 151.151 2.64517C150.876 2.59142 150.477 2.59668 150.265 2.65718Z" fill="#F38218"/>
<path fill-rule="evenodd" clip-rule="evenodd" d="M133.934 1.9375C133.829 2.30425 133.587 3.8885 133.172 6.9375C133.1 7.465 133.186 7.5 134.546 7.5H135.996L136.166 6.3625C136.26 5.737 136.492 5.06999 136.682 4.88049C136.871 4.69074 137.026 4.35226 137.026 4.12801C137.026 3.90401 137.127 3.7825 137.249 3.858C137.371 3.93375 137.545 3.60276 137.635 3.12276C137.725 2.64276 137.894 2.25 138.011 2.25C138.128 2.25 138.288 2.08125 138.367 1.875C138.488 1.559 138.161 1.5 136.285 1.5C134.381 1.5 134.042 1.563 133.934 1.9375Z" fill="#F38218"/>
<path fill-rule="evenodd" clip-rule="evenodd" d="M133.801 3.5625C133.628 4.697 133.427 6.047 133.355 6.5625L133.224 7.5H136.026L136.027 6.5625C136.027 6.00725 136.329 5.05224 136.768 4.22024C137.175 3.44749 137.445 2.75225 137.368 2.675C137.291 2.59775 137.464 2.38724 137.752 2.20724C138.656 1.64299 138.341 1.5 136.196 1.5H134.115L133.801 3.5625Z" fill="#F38218"/>
<path fill-rule="evenodd" clip-rule="evenodd" d="M141.259 2.8125C141.246 3.7765 141.184 3.99225 141.026 3.625C140.886 3.29825 140.814 3.905 140.819 5.375C140.823 6.8645 140.894 7.41375 141.026 7C141.218 6.4005 141.227 6.39775 141.251 6.9375C141.275 7.47725 141.367 7.5 143.526 7.5H145.776V5.66C145.776 4.64775 145.705 3.29775 145.617 2.66L145.458 1.5H141.276L141.259 2.8125Z" fill="#561217"/>
<path fill-rule="evenodd" clip-rule="evenodd" d="M141.493 2.0625C141.442 2.37175 141.437 3.722 141.481 5.0625L141.56 7.5H143.526C145.913 7.5 145.903 7.51675 145.649 3.974L145.472 1.5H143.528C141.706 1.5 141.579 1.53525 141.493 2.0625Z" fill="#561217"/>
<path fill-rule="evenodd" clip-rule="evenodd" d="M125.867 2.66C125.955 3.29775 126.026 4.64775 126.026 5.66V7.5H130.776V5.28125C130.776 4.061 130.706 2.711 130.62 2.28125L130.464 1.5H125.708L125.867 2.66Z" fill="#FBE5B6"/>
<path fill-rule="evenodd" clip-rule="evenodd" d="M125.911 2.07401C125.99 2.38975 126.076 3.7395 126.103 5.0735L126.151 7.49875L130.85 7.5L130.69 5.4375C130.601 4.303 130.528 2.95325 130.528 2.4375L130.526 1.5H128.146C125.789 1.5 125.768 1.50551 125.911 2.07401ZM126.296 3.39575C126.308 3.687 126.367 3.74625 126.447 3.547C126.519 3.3665 126.51 3.15075 126.427 3.06775C126.344 2.98475 126.285 3.13225 126.296 3.39575Z" fill="#FBE5B6"/>
<path fill-rule="evenodd" clip-rule="evenodd" d="M115.382 2.33224C115.312 2.51499 115.288 3.66824 115.328 4.89474L115.401 7.125L121.276 7.26575V2H118.393C116.226 2 115.478 2.08249 115.382 2.33224Z" fill="#561217"/>
<path fill-rule="evenodd" clip-rule="evenodd" d="M115.632 2.33224C115.562 2.51499 115.538 3.66824 115.578 4.89474L115.651 7.125L121.026 7.267V2H118.393C116.434 2 115.727 2.08499 115.632 2.33224Z" fill="#561217"/>
<path fill-rule="evenodd" clip-rule="evenodd" d="M99.7764 6.25014L102.839 6.26239C111.992 6.29864 113.139 6.25064 113.464 5.81964C113.869 5.28189 113.869 3.13714 113.464 2.80464C113.27 2.64514 110.619 2.53588 106.464 2.51588L99.7764 2.48364V6.25014Z" fill="#177402"/>
<path fill-rule="evenodd" clip-rule="evenodd" d="M306.937 2.05443C306.328 2.2274 305.581 2.50554 305.277 2.67269C304.972 2.83958 304.568 2.92038 304.377 2.8523C304.187 2.78395 304.031 2.8631 304.031 3.02804C304.031 3.19299 303.859 3.32777 303.649 3.32777C303.2 3.32777 302.934 4.1644 302.928 5.58829C302.921 7.46826 302.94 7.47905 306.242 7.47905H309.223L308.95 6.19907C308.768 5.34861 308.771 4.4428 308.957 3.50101C309.111 2.72112 309.18 1.98939 309.109 1.87509C308.944 1.60885 308.324 1.66006 306.937 2.05443Z" fill="#F38218"/>
<path fill-rule="evenodd" clip-rule="evenodd" d="M306.661 2.38155C305.595 2.75516 304.599 3.10193 304.447 3.15258C303.248 3.54972 303.201 3.63966 303.201 5.57139V7.47904H306.112C309.01 7.47904 309.023 7.476 308.864 6.84417C308.608 5.82489 308.595 4.39464 308.829 2.98182C308.949 2.25895 308.946 1.67527 308.822 1.68468C308.699 1.69437 307.726 2.00793 306.661 2.38155Z" fill="#F38218"/>
<path fill-rule="evenodd" clip-rule="evenodd" d="M292.408 7.47903H298.773V1.66724H292.408V7.47903Z" fill="#FBE5B6"/>
<path fill-rule="evenodd" clip-rule="evenodd" d="M292.685 7.47903L298.773 7.47903V1.66724L292.685 1.66724V7.47903Z" fill="#FBE5B6"/>
<path fill-rule="evenodd" clip-rule="evenodd" d="M270.879 1.59576C271.9 1.64862 273.643 1.64916 274.753 1.5963C275.864 1.54372 275.028 1.50028 272.897 1.50001C270.766 1.49945 269.858 1.54263 270.879 1.59576ZM259.392 2.44759C259.231 2.77969 259.366 5.10082 259.592 5.8879C259.713 6.30663 259.938 6.64897 260.092 6.64897C260.254 6.64897 260.226 6.82554 260.028 7.0641C259.727 7.42747 259.967 7.47923 261.948 7.47923C263.193 7.47923 265.045 7.35995 266.064 7.2141C267.083 7.06825 272.882 6.89002 278.953 6.81834C285.101 6.74556 290.102 6.57508 290.244 6.43338C290.384 6.29335 290.461 5.31945 290.416 4.26918L290.333 2.35931L279.678 2.27104C272.569 2.21209 268.7 2.28237 268.054 2.48218C267.522 2.64713 266.338 2.81651 265.423 2.85885C264.509 2.90092 263.617 3.02435 263.442 3.13256C263.098 3.34511 262.203 3.0988 261.947 2.72076C261.75 2.43045 259.517 2.19159 259.392 2.44759Z" fill="#313131"/>
<path fill-rule="evenodd" clip-rule="evenodd" d="M249.966 2.27894C249.698 3.27967 249.755 3.93446 250.093 3.72579C250.303 3.59599 250.298 3.7222 250.078 4.13401C249.902 4.46196 249.797 5.31767 249.843 6.03556L249.927 7.34073L254.632 7.49986L254.355 1.80569L252.245 1.72544C250.249 1.64961 250.126 1.67922 249.966 2.27894Z" fill="#177402"/>
<path fill-rule="evenodd" clip-rule="evenodd" d="M250.48 1.82783C250.258 1.92165 250.179 4.59423 250.322 7.13316C250.336 7.37781 250.957 7.4791 252.443 7.4791H254.545L254.347 4.78077C254.239 3.29682 254.095 1.98917 254.029 1.87487C253.903 1.66011 250.97 1.62109 250.48 1.82783Z" fill="#177402"/>
<path fill-rule="evenodd" clip-rule="evenodd" d="M242.039 4.57314V7.47904H246.679L246.87 5.70062C247.09 3.64795 246.634 2.60488 245.395 2.32896C244.995 2.23984 244.232 2.05525 243.7 1.91881C241.998 1.48237 242.039 1.41734 242.039 4.57314Z" fill="#F38218"/>
<path fill-rule="evenodd" clip-rule="evenodd" d="M242.307 1.70682C242.302 1.76106 242.246 3.082 242.182 4.64232L242.065 7.47903H246.511L246.329 6.64878C246.225 6.17553 246.261 5.81852 246.413 5.81852C246.559 5.81852 246.685 5.33531 246.694 4.74472C246.711 3.49989 246.016 2.58717 244.868 2.34584C243.417 2.04058 243.281 2.00515 242.8 1.80727C242.534 1.69768 242.312 1.65257 242.307 1.70682Z" fill="#F38218"/>
<path fill-rule="evenodd" clip-rule="evenodd" d="M235.319 2.08067C234.591 2.28104 233.833 2.57993 233.633 2.74543C233.434 2.91092 233.201 2.97596 233.115 2.89044C233.029 2.80465 232.698 2.95797 232.38 3.23113C231.897 3.64432 231.8 4.04145 231.8 5.60316V7.47899H237.196L237.21 4.5731C237.219 2.70557 237.12 1.67605 236.933 1.69183C236.774 1.70567 236.047 1.88058 235.319 2.08067Z" fill="#FEFF03"/>
<path fill-rule="evenodd" clip-rule="evenodd" d="M235.813 2.09506C235.204 2.28436 234.121 2.69395 233.407 3.0053C232.294 3.49044 232.081 3.71239 231.923 4.55649C231.821 5.09837 231.82 5.97761 231.92 6.51036L232.102 7.47899H234.737C237.114 7.47899 237.359 7.43166 237.236 6.99467C236.846 5.60925 236.795 4.7206 237.033 3.46608C237.177 2.70502 237.211 2.00788 237.108 1.91655C237.004 1.8255 236.422 1.90576 235.813 2.09506Z" fill="#FEFF03"/>
<path fill-rule="evenodd" clip-rule="evenodd" d="M221.19 1.85183C221.089 1.95312 221.006 3.26078 221.006 4.75773V7.47903H224.327H227.648V1.66724H224.511C222.786 1.66724 221.292 1.75027 221.19 1.85183Z" fill="#FBE5B6"/>
<path fill-rule="evenodd" clip-rule="evenodd" d="M221.467 1.85183C221.366 1.95312 221.283 3.26077 221.283 4.75772V7.47903L224.327 7.47903L227.371 7.47903V1.66724L224.511 1.66724C222.938 1.66724 221.568 1.75026 221.467 1.85183Z" fill="#FBE5B6"/>
<path fill-rule="evenodd" clip-rule="evenodd" d="M203.848 6.92365L211.251 6.78279C219.611 6.62366 219.349 6.69922 219.342 4.45116C219.334 2.28447 219.717 2.3888 211.335 2.27118L203.848 2.16602V6.92365Z" fill="#561217"/>
<path fill-rule="evenodd" clip-rule="evenodd" d="M405.784 7.47903H412.149V1.66724H405.784V7.47903Z" fill="#FBE5B6"/>
<path fill-rule="evenodd" clip-rule="evenodd" d="M406.061 7.47903L412.149 7.47903V1.66724L406.061 1.66724V7.47903Z" fill="#FBE5B6"/>
<path fill-rule="evenodd" clip-rule="evenodd" d="M384.255 1.59576C385.276 1.64862 387.019 1.64916 388.129 1.5963C389.24 1.54372 388.404 1.50028 386.273 1.50001C384.142 1.49945 383.234 1.54263 384.255 1.59576ZM372.768 2.44759C372.607 2.77969 372.742 5.10082 372.968 5.8879C373.089 6.30663 373.314 6.64897 373.468 6.64897C373.63 6.64897 373.602 6.82554 373.404 7.0641C373.103 7.42747 373.343 7.47923 375.324 7.47923C376.569 7.47923 378.421 7.35995 379.44 7.2141C380.459 7.06825 386.258 6.89002 392.329 6.81834C398.476 6.74556 403.478 6.57508 403.62 6.43338C403.76 6.29335 403.837 5.31945 403.792 4.26918L403.709 2.35931L393.054 2.27104C385.945 2.21209 382.076 2.28237 381.43 2.48218C380.897 2.64713 379.714 2.81651 378.799 2.85885C377.884 2.90092 376.993 3.02435 376.818 3.13256C376.474 3.34511 375.579 3.0988 375.323 2.72076C375.126 2.43045 372.893 2.19159 372.768 2.44759Z" fill="#313131"/>
<path fill-rule="evenodd" clip-rule="evenodd" d="M363.342 2.27894C363.074 3.27967 363.131 3.93446 363.469 3.72579C363.679 3.59599 363.674 3.7222 363.454 4.13401C363.278 4.46196 363.173 5.31767 363.219 6.03556L363.303 7.34073L368.008 7.49986L367.731 1.80569L365.621 1.72544C363.625 1.64961 363.502 1.67922 363.342 2.27894Z" fill="#177402"/>
<path fill-rule="evenodd" clip-rule="evenodd" d="M363.856 1.82783C363.634 1.92165 363.555 4.59423 363.698 7.13316C363.712 7.37781 364.333 7.4791 365.819 7.4791H367.921L367.723 4.78077C367.615 3.29682 367.471 1.98917 367.404 1.87487C367.279 1.66011 364.346 1.62109 363.856 1.82783Z" fill="#177402"/>
<path fill-rule="evenodd" clip-rule="evenodd" d="M355.415 4.57314V7.47904H360.055L360.246 5.70062C360.466 3.64795 360.009 2.60488 358.771 2.32896C358.371 2.23984 357.608 2.05525 357.076 1.91881C355.374 1.48237 355.415 1.41734 355.415 4.57314Z" fill="#F38218"/>
<path fill-rule="evenodd" clip-rule="evenodd" d="M355.683 1.70682C355.678 1.76106 355.622 3.082 355.558 4.64232L355.441 7.47903H359.887L359.705 6.64878C359.601 6.17553 359.637 5.81852 359.789 5.81852C359.935 5.81852 360.061 5.33531 360.07 4.74472C360.087 3.49989 359.392 2.58717 358.244 2.34584C356.793 2.04058 356.657 2.00515 356.176 1.80727C355.91 1.69768 355.688 1.65257 355.683 1.70682Z" fill="#F38218"/>
<path fill-rule="evenodd" clip-rule="evenodd" d="M348.695 2.08067C347.967 2.28104 347.209 2.57993 347.009 2.74543C346.81 2.91092 346.577 2.97596 346.491 2.89044C346.405 2.80465 346.074 2.95797 345.756 3.23113C345.273 3.64432 345.176 4.04145 345.176 5.60316V7.47899H350.572L350.586 4.5731C350.595 2.70557 350.496 1.67605 350.309 1.69183C350.15 1.70567 349.423 1.88058 348.695 2.08067Z" fill="#FEFF03"/>
<path fill-rule="evenodd" clip-rule="evenodd" d="M349.189 2.09506C348.58 2.28436 347.497 2.69395 346.783 3.0053C345.67 3.49044 345.457 3.71239 345.299 4.55649C345.197 5.09837 345.196 5.97761 345.296 6.51036L345.478 7.47899H348.113C350.49 7.47899 350.735 7.43166 350.612 6.99467C350.222 5.60925 350.171 4.7206 350.409 3.46608C350.553 2.70502 350.587 2.00788 350.484 1.91655C350.38 1.8255 349.798 1.90576 349.189 2.09506Z" fill="#FEFF03"/>
<path fill-rule="evenodd" clip-rule="evenodd" d="M334.566 1.85183C334.465 1.95312 334.382 3.26078 334.382 4.75773V7.47903H337.703H341.024V1.66724H337.887C336.162 1.66724 334.668 1.75027 334.566 1.85183Z" fill="#FBE5B6"/>
<path fill-rule="evenodd" clip-rule="evenodd" d="M334.843 1.85183C334.742 1.95312 334.659 3.26077 334.659 4.75772V7.47903L337.703 7.47903L340.747 7.47903V1.66724L337.887 1.66724C336.314 1.66724 334.944 1.75026 334.843 1.85183Z" fill="#FBE5B6"/>
<path fill-rule="evenodd" clip-rule="evenodd" d="M317.224 6.92365L324.627 6.78279C332.987 6.62366 332.725 6.69922 332.718 4.45116C332.71 2.28447 333.093 2.3888 324.711 2.27118L317.224 2.16602V6.92365Z" fill="#561217"/>
</svg>
