<svg width="24" height="18" viewBox="0 0 24 18" fill="none" xmlns="http://www.w3.org/2000/svg">
<g clip-path="url(#clip0_458_2357)">
<rect width="24" height="18" fill="white"/>
<path fill-rule="evenodd" clip-rule="evenodd" d="M0 0V18H24V0H0Z" fill="#2E42A5"/>
<mask id="mask0_458_2357" style="mask-type:luminance" maskUnits="userSpaceOnUse" x="0" y="0" width="24" height="18">
<path fill-rule="evenodd" clip-rule="evenodd" d="M0 0V18H24V0H0Z" fill="white"/>
</mask>
<g mask="url(#mask0_458_2357)">
<path d="M-2.67383 16.714L2.60744 18.9475L24.1184 2.4283L26.9041 -0.890816L21.2566 -1.63733L12.4828 5.48127L5.42076 10.2775L-2.67383 16.714Z" fill="white"/>
<path d="M-1.94922 18.2789L0.741343 19.5751L25.9054 -1.19913H22.1275L-1.94922 18.2789Z" fill="#F50100"/>
<path d="M26.6719 16.714L21.3906 18.9475L-0.120319 2.4283L-2.90607 -0.890816L2.74149 -1.63733L11.5153 5.48127L18.5773 10.2775L26.6719 16.714Z" fill="white"/>
<path d="M26.4922 17.8371L23.8016 19.1333L13.0865 10.2388L9.90973 9.24502L-3.1736 -0.879377H0.604259L13.6802 9.00471L17.1535 10.1963L26.4922 17.8371Z" fill="#F50100"/>
<mask id="path-7-inside-1_458_2357" fill="white">
<path d="M14.834 6H25.5205V12H14.834V19.5H9.16699V12H-1.47949V6H9.16699V-1.5H14.834V6Z"/>
</mask>
<path d="M14.834 6H25.5205V12H14.834V19.5H9.16699V12H-1.47949V6H9.16699V-1.5H14.834V6Z" fill="#F50100"/>
<path d="M14.834 6H13.334V7.5H14.834V6ZM25.5205 6H27.0205V4.5H25.5205V6ZM25.5205 12V13.5H27.0205V12H25.5205ZM14.834 12V10.5H13.334V12H14.834ZM14.834 19.5V21H16.334V19.5H14.834ZM9.16699 19.5H7.66699V21H9.16699V19.5ZM9.16699 12H10.667V10.5H9.16699V12ZM-1.47949 12H-2.97949V13.5H-1.47949V12ZM-1.47949 6V4.5H-2.97949V6H-1.47949ZM9.16699 6V7.5H10.667V6H9.16699ZM9.16699 -1.5V-3H7.66699V-1.5H9.16699ZM14.834 -1.5H16.334V-3H14.834V-1.5ZM14.834 6V7.5H25.5205V6V4.5H14.834V6ZM25.5205 6H24.0205V12H25.5205H27.0205V6H25.5205ZM25.5205 12V10.5H14.834V12V13.5H25.5205V12ZM14.834 12H13.334V19.5H14.834H16.334V12H14.834ZM14.834 19.5V18H9.16699V19.5V21H14.834V19.5ZM9.16699 19.5H10.667V12H9.16699H7.66699V19.5H9.16699ZM9.16699 12V10.5H-1.47949V12V13.5H9.16699V12ZM-1.47949 12H0.0205078V6H-1.47949H-2.97949V12H-1.47949ZM-1.47949 6V7.5H9.16699V6V4.5H-1.47949V6ZM9.16699 6H10.667V-1.5H9.16699H7.66699V6H9.16699ZM9.16699 -1.5V0H14.834V-1.5V-3H9.16699V-1.5ZM14.834 -1.5H13.334V6H14.834H16.334V-1.5H14.834Z" fill="white" mask="url(#path-7-inside-1_458_2357)"/>
</g>
</g>
<defs>
<clipPath id="clip0_458_2357">
<rect width="24" height="18" fill="white"/>
</clipPath>
</defs>
</svg>
